<?xml version="1.0" encoding="UTF-8"?>
<svg width="32px" height="31px" viewBox="0 0 32 31" version="1.1" xmlns="http://www.w3.org/2000/svg" xmlns:xlink="http://www.w3.org/1999/xlink">
    <!-- Generator: Sketch 52.6 (67491) - http://www.bohemiancoding.com/sketch -->
    <title>icon-facebook</title>
    <desc>Created with Sketch.</desc>
    <g id="Symbols" stroke="none" stroke-width="1" fill="none" fill-rule="evenodd">
        <g id="Footer-new" transform="translate(-1414.000000, -494.000000)" fill="#FFFFFF" fill-rule="nonzero">
            <g id="Footer" transform="translate(-4.000000, 0.000000)">
                <g id="Copyright" transform="translate(0.000000, 438.000000)">
                    <g id="Col.3" transform="translate(1341.000000, 56.000000)">
                        <g id="Social-Icons">
                            <g id="icon-facebook" transform="translate(77.825811, 0.000000)">
                                <path d="M15.1754457,0 C6.79427846,-5.11069803e-16 1.02639696e-15,6.76609672 0,15.1125 C-1.02639696e-15,23.4589033 6.79427846,30.225 15.1754457,30.225 C23.5566129,30.225 30.3508913,23.4589033 30.3508913,15.1125 C30.3508913,11.1044158 28.7520543,7.26049229 25.9061062,4.42634877 C23.0601581,1.59220525 19.2002241,2.45424374e-16 15.1754457,0 Z M19.7336381,9.31107143 L18.0660068,9.31107143 C16.7652543,9.31107143 16.5095508,9.95321429 16.5095508,10.8832143 L16.5095508,13.0975 L19.4556996,13.0975 L19.055468,16.3303571 L16.5095508,16.3303571 L16.5095508,24.4346429 L13.2743459,24.4346429 L13.2743459,16.3303571 L10.6283707,16.3303571 L10.6283707,13.0975 L13.2743459,13.0975 L13.2743459,10.5621429 C13.2743459,7.80535714 14.9086246,6.29964286 17.3100139,6.29964286 C18.1198439,6.29505069 18.9292071,6.33941799 19.7336381,6.4325 L19.7336381,9.31107143 Z" id="Shape"></path>
                            </g>
                        </g>
                    </g>
                </g>
            </g>
        </g>
    </g>
</svg>